<mxfile host="app.diagrams.net" modified="2023-04-29T09:17:00.347Z" agent="Mozilla/5.0 (Windows NT 10.0; Win64; x64) AppleWebKit/537.36 (KHTML, like Gecko) Chrome/112.0.0.0 Safari/537.36" etag="u0LufcpyDKb9rMV5aVf6" version="21.2.3" type="device">
  <diagram name="Trang-1" id="z1AgkxLzZgDLwWqj8Kgh">
    <mxGraphModel dx="1290" dy="483" grid="1" gridSize="10" guides="1" tooltips="1" connect="1" arrows="1" fold="1" page="1" pageScale="1" pageWidth="827" pageHeight="1169" math="0" shadow="0">
      <root>
        <mxCell id="0" />
        <mxCell id="1" parent="0" />
        <mxCell id="M9NXlxp-9Em8xHGJU7M--1" value="" style="group" vertex="1" connectable="0" parent="1">
          <mxGeometry x="20" y="130" width="830" height="350" as="geometry" />
        </mxCell>
        <mxCell id="M9NXlxp-9Em8xHGJU7M--2" value="" style="rounded=0;whiteSpace=wrap;html=1;" vertex="1" parent="M9NXlxp-9Em8xHGJU7M--1">
          <mxGeometry x="50" y="-10" width="690" height="360" as="geometry" />
        </mxCell>
        <mxCell id="M9NXlxp-9Em8xHGJU7M--3" value="Người dùng" style="shape=umlActor;verticalLabelPosition=bottom;verticalAlign=top;html=1;outlineConnect=0;" vertex="1" parent="M9NXlxp-9Em8xHGJU7M--1">
          <mxGeometry y="140" width="30" height="60" as="geometry" />
        </mxCell>
        <mxCell id="M9NXlxp-9Em8xHGJU7M--4" value="Chọn Hỗ Trợ Người Dùng" style="ellipse;whiteSpace=wrap;html=1;" vertex="1" parent="M9NXlxp-9Em8xHGJU7M--1">
          <mxGeometry x="90" y="135" width="120" height="50" as="geometry" />
        </mxCell>
        <mxCell id="M9NXlxp-9Em8xHGJU7M--5" value="Người Dùng Cần Hổ Trợ" style="ellipse;whiteSpace=wrap;html=1;" vertex="1" parent="M9NXlxp-9Em8xHGJU7M--1">
          <mxGeometry x="286" y="135" width="120" height="50" as="geometry" />
        </mxCell>
        <mxCell id="M9NXlxp-9Em8xHGJU7M--6" value="" style="endArrow=none;html=1;rounded=0;exitX=1;exitY=0.3333333333333333;exitDx=0;exitDy=0;exitPerimeter=0;entryX=0;entryY=0.5;entryDx=0;entryDy=0;" edge="1" parent="M9NXlxp-9Em8xHGJU7M--1" source="M9NXlxp-9Em8xHGJU7M--3" target="M9NXlxp-9Em8xHGJU7M--4">
          <mxGeometry width="50" height="50" relative="1" as="geometry">
            <mxPoint x="350" y="200" as="sourcePoint" />
            <mxPoint x="400" y="150" as="targetPoint" />
          </mxGeometry>
        </mxCell>
        <mxCell id="M9NXlxp-9Em8xHGJU7M--7" value="&amp;lt;&amp;lt;include&amp;gt;&amp;gt;" style="html=1;verticalAlign=bottom;endArrow=block;edgeStyle=elbowEdgeStyle;elbow=vertical;curved=0;rounded=0;entryX=0;entryY=0.5;entryDx=0;entryDy=0;" edge="1" parent="M9NXlxp-9Em8xHGJU7M--1" target="M9NXlxp-9Em8xHGJU7M--5">
          <mxGeometry width="80" relative="1" as="geometry">
            <mxPoint x="210" y="159.5" as="sourcePoint" />
            <mxPoint x="280" y="160" as="targetPoint" />
          </mxGeometry>
        </mxCell>
        <mxCell id="M9NXlxp-9Em8xHGJU7M--8" value="Hệ Thống" style="shape=umlActor;verticalLabelPosition=bottom;verticalAlign=top;html=1;outlineConnect=0;" vertex="1" parent="M9NXlxp-9Em8xHGJU7M--1">
          <mxGeometry x="760" y="130" width="30" height="60" as="geometry" />
        </mxCell>
        <mxCell id="M9NXlxp-9Em8xHGJU7M--9" value="Hệ Thống Hỗ Trợ Người Dùng bằng giọng nói" style="ellipse;whiteSpace=wrap;html=1;" vertex="1" parent="M9NXlxp-9Em8xHGJU7M--1">
          <mxGeometry x="460" y="135" width="100" height="50" as="geometry" />
        </mxCell>
        <mxCell id="M9NXlxp-9Em8xHGJU7M--10" value="Khiếm Thị" style="ellipse;whiteSpace=wrap;html=1;" vertex="1" parent="M9NXlxp-9Em8xHGJU7M--1">
          <mxGeometry x="210" y="245" width="120" height="50" as="geometry" />
        </mxCell>
        <mxCell id="M9NXlxp-9Em8xHGJU7M--11" value="Người Dùng Mới" style="ellipse;whiteSpace=wrap;html=1;" vertex="1" parent="M9NXlxp-9Em8xHGJU7M--1">
          <mxGeometry x="366" y="245" width="120" height="50" as="geometry" />
        </mxCell>
        <mxCell id="M9NXlxp-9Em8xHGJU7M--12" value="&amp;lt;&amp;lt;extend&amp;gt;&amp;gt;" style="html=1;verticalAlign=bottom;endArrow=block;edgeStyle=elbowEdgeStyle;elbow=vertical;curved=0;rounded=0;exitX=0.5;exitY=0;exitDx=0;exitDy=0;entryX=0.5;entryY=1;entryDx=0;entryDy=0;" edge="1" parent="M9NXlxp-9Em8xHGJU7M--1" source="M9NXlxp-9Em8xHGJU7M--10" target="M9NXlxp-9Em8xHGJU7M--5">
          <mxGeometry width="80" relative="1" as="geometry">
            <mxPoint x="286" y="135" as="sourcePoint" />
            <mxPoint x="366" y="135" as="targetPoint" />
            <mxPoint as="offset" />
          </mxGeometry>
        </mxCell>
        <mxCell id="M9NXlxp-9Em8xHGJU7M--13" value="&amp;lt;&amp;lt;extend&amp;gt;&amp;gt;" style="html=1;verticalAlign=bottom;endArrow=block;edgeStyle=elbowEdgeStyle;elbow=vertical;curved=0;rounded=0;exitX=0.5;exitY=0;exitDx=0;exitDy=0;entryX=0.5;entryY=1;entryDx=0;entryDy=0;" edge="1" parent="M9NXlxp-9Em8xHGJU7M--1" source="M9NXlxp-9Em8xHGJU7M--11">
          <mxGeometry x="-0.0323" y="-10" width="80" relative="1" as="geometry">
            <mxPoint x="286" y="245" as="sourcePoint" />
            <mxPoint x="362" y="185" as="targetPoint" />
            <mxPoint as="offset" />
          </mxGeometry>
        </mxCell>
        <mxCell id="M9NXlxp-9Em8xHGJU7M--14" value="Hướng Dẫn Người Dùng Đặt Vé và Lấy Vé" style="ellipse;whiteSpace=wrap;html=1;" vertex="1" parent="M9NXlxp-9Em8xHGJU7M--1">
          <mxGeometry x="620" y="135" width="110" height="50" as="geometry" />
        </mxCell>
        <mxCell id="M9NXlxp-9Em8xHGJU7M--15" value="&amp;lt;&amp;lt;include&amp;gt;&amp;gt;" style="html=1;verticalAlign=bottom;endArrow=block;edgeStyle=elbowEdgeStyle;elbow=vertical;curved=0;rounded=0;" edge="1" parent="M9NXlxp-9Em8xHGJU7M--1">
          <mxGeometry width="80" relative="1" as="geometry">
            <mxPoint x="406" y="159.5" as="sourcePoint" />
            <mxPoint x="460" y="160" as="targetPoint" />
          </mxGeometry>
        </mxCell>
        <mxCell id="M9NXlxp-9Em8xHGJU7M--16" value="&amp;lt;&amp;lt;include&amp;gt;&amp;gt;" style="html=1;verticalAlign=bottom;endArrow=block;edgeStyle=elbowEdgeStyle;elbow=vertical;curved=0;rounded=0;" edge="1" parent="M9NXlxp-9Em8xHGJU7M--1">
          <mxGeometry width="80" relative="1" as="geometry">
            <mxPoint x="560" y="159.5" as="sourcePoint" />
            <mxPoint x="620" y="160" as="targetPoint" />
          </mxGeometry>
        </mxCell>
        <mxCell id="M9NXlxp-9Em8xHGJU7M--17" value="Hỗ trợ người dùng khiếm thị hoặc cần hỗ trợ" style="text;align=center;fontStyle=1;verticalAlign=middle;spacingLeft=3;spacingRight=3;strokeColor=none;rotatable=0;points=[[0,0.5],[1,0.5]];portConstraint=eastwest;html=1;" vertex="1" parent="M9NXlxp-9Em8xHGJU7M--1">
          <mxGeometry x="334" width="80" height="26" as="geometry" />
        </mxCell>
        <mxCell id="M9NXlxp-9Em8xHGJU7M--18" value="" style="endArrow=none;html=1;rounded=0;fontFamily=Helvetica;fontSize=12;fontColor=default;exitX=1;exitY=0.5;exitDx=0;exitDy=0;" edge="1" parent="M9NXlxp-9Em8xHGJU7M--1" source="M9NXlxp-9Em8xHGJU7M--14">
          <mxGeometry width="50" height="50" relative="1" as="geometry">
            <mxPoint x="710" y="210" as="sourcePoint" />
            <mxPoint x="760" y="160" as="targetPoint" />
          </mxGeometry>
        </mxCell>
      </root>
    </mxGraphModel>
  </diagram>
</mxfile>
